<svg xmlns="http://www.w3.org/2000/svg" width="48.0" height="48.0" viewBox="0 0 48.0 48.0" role="img" aria-label="Maia mark"><title>Maia mark</title><desc>Maia voicewave speech bubble with an AI spark as the final note.</desc><g transform="translate(0.000,0.000) scale(1.00000)"><rect x="4" y="6" width="40" height="28" rx="11" fill="#e85d26"/><path d="M13 31 L13 41 L23 32 Z" fill="#e85d26"/><rect x="13" y="15.5" width="4" height="9" rx="2" fill="#ffffff"/><rect x="19" y="12.5" width="4" height="15" rx="2" fill="#ffffff"/><rect x="25" y="10.5" width="4" height="19" rx="2" fill="#ffffff"/><path transform="translate(35,20) scale(0.58)" d="M0,-10 C0,-4 4,0 10,0 C4,0 0,4 0,10 C0,4 -4,0 -10,0 C-4,0 0,-4 0,-10 Z" fill="#ffffff"/></g></svg>