<svg xmlns="http://www.w3.org/2000/svg" width="116.4" height="40.3" viewBox="0 0 116.4 40.3" role="img" aria-label="Maia wordmark with AI spark"><title>Maia wordmark with AI spark</title><desc>The Maia wordmark followed by a small four-point spark denoting AI.</desc><g transform="translate(6.00,32.76)"><path d="M2.82,-0.00 L2.82,-23.80 L7.38,-23.80 L16.29,-9.01 L25.06,-23.80 L29.58,-23.80 L29.65,-0.00 L24.48,-0.00 L24.45,-14.25 L17.44,-2.52 L14.96,-2.52 L7.99,-14.01 L7.99,-0.00 L2.82,-0.00 Z M46.14,-0.00 L46.14,-2.24 Q44.61,0.27 40.56,0.27 Q37.33,0.27 35.53,-1.31 Q33.73,-2.89 33.73,-5.27 Q33.73,-7.68 35.56,-9.21 Q37.40,-10.74 41.58,-10.74 L45.80,-10.74 L45.80,-10.74 Q45.80,-12.44 44.76,-13.39 Q43.72,-14.35 41.58,-14.35 Q40.12,-14.35 38.71,-13.89 Q37.30,-13.43 36.31,-12.65 L34.41,-16.35 Q35.90,-17.41 38.01,-17.98 Q40.12,-18.56 42.30,-18.56 Q46.48,-18.56 48.79,-16.58 Q51.10,-14.59 51.10,-10.44 L51.10,-0.00 L46.14,-0.00 Z M45.80,-5.78 L45.80,-7.65 L42.16,-7.65 Q40.29,-7.65 39.59,-7.04 Q38.90,-6.43 38.90,-5.51 Q38.90,-4.49 39.69,-3.89 Q40.49,-3.30 41.89,-3.30 Q43.21,-3.30 44.26,-3.93 Q45.32,-4.56 45.80,-5.78 Z M55.90,-0.00 L55.90,-18.29 L61.20,-18.29 L61.20,-0.00 L55.90,-0.00 Z M58.55,-20.84 Q57.09,-20.84 56.17,-21.69 Q55.25,-22.54 55.25,-23.80 Q55.25,-25.02 56.17,-25.89 Q57.09,-26.76 58.55,-26.76 Q60.01,-26.76 60.93,-25.94 Q61.85,-25.13 61.85,-23.90 Q61.85,-22.58 60.94,-21.71 Q60.05,-20.84 58.55,-20.84 Z M77.35,-0.00 L77.35,-2.24 Q75.82,0.27 71.77,0.27 Q68.54,0.27 66.74,-1.31 Q64.94,-2.89 64.94,-5.27 Q64.94,-7.68 66.77,-9.21 Q68.61,-10.74 72.79,-10.74 L77.01,-10.74 L77.01,-10.74 Q77.01,-12.44 75.97,-13.39 Q74.93,-14.35 72.79,-14.35 Q71.33,-14.35 69.92,-13.89 Q68.51,-13.43 67.52,-12.65 L65.62,-16.35 Q67.11,-17.41 69.22,-17.98 Q71.33,-18.56 73.51,-18.56 Q77.69,-18.56 80.00,-16.58 Q82.31,-14.59 82.31,-10.44 L82.31,-0.00 L77.35,-0.00 Z M77.01,-5.78 L77.01,-7.65 L73.37,-7.65 Q71.50,-7.65 70.81,-7.04 Q70.11,-6.43 70.11,-5.51 Q70.11,-4.49 70.91,-3.89 Q71.70,-3.30 73.10,-3.30 Q74.42,-3.30 75.48,-3.93 Q76.53,-4.56 77.01,-5.78 Z" fill="#1a1a1a"/></g><path transform="translate(102.34,13.49) scale(0.8028)" d="M0,-10 C0,-4 4,0 10,0 C4,0 0,4 0,10 C0,4 -4,0 -10,0 C-4,0 0,-4 0,-10 Z" fill="#e85d26"/></svg>