<svg xmlns="http://www.w3.org/2000/svg" width="287.6" height="55.3" viewBox="0 0 287.6 55.3" role="img" aria-label="Maia by PMI Top Florida Properties"><title>Maia by PMI Top Florida Properties</title><desc>Maia voicewave-and-spark mark with the Maia wordmark and the tagline by PMI Top Florida Properties.</desc><g transform="translate(1.056,-1.416) scale(1.23597)"><rect x="4" y="6" width="40" height="28" rx="11" fill="#e85d26"/><path d="M13 31 L13 41 L23 32 Z" fill="#e85d26"/><rect x="13" y="15.5" width="4" height="9" rx="2" fill="#ffffff"/><rect x="19" y="12.5" width="4" height="15" rx="2" fill="#ffffff"/><rect x="25" y="10.5" width="4" height="19" rx="2" fill="#ffffff"/><path transform="translate(35,20) scale(0.58)" d="M0,-10 C0,-4 4,0 10,0 C4,0 0,4 0,10 C0,4 -4,0 -10,0 C-4,0 0,-4 0,-10 Z" fill="#ffffff"/></g><g transform="translate(71.44,34.76)"><path d="M2.82,-0.00 L2.82,-23.80 L7.38,-23.80 L16.29,-9.01 L25.06,-23.80 L29.58,-23.80 L29.65,-0.00 L24.48,-0.00 L24.45,-14.25 L17.44,-2.52 L14.96,-2.52 L7.99,-14.01 L7.99,-0.00 L2.82,-0.00 Z M46.14,-0.00 L46.14,-2.24 Q44.61,0.27 40.56,0.27 Q37.33,0.27 35.53,-1.31 Q33.73,-2.89 33.73,-5.27 Q33.73,-7.68 35.56,-9.21 Q37.40,-10.74 41.58,-10.74 L45.80,-10.74 L45.80,-10.74 Q45.80,-12.44 44.76,-13.39 Q43.72,-14.35 41.58,-14.35 Q40.12,-14.35 38.71,-13.89 Q37.30,-13.43 36.31,-12.65 L34.41,-16.35 Q35.90,-17.41 38.01,-17.98 Q40.12,-18.56 42.30,-18.56 Q46.48,-18.56 48.79,-16.58 Q51.10,-14.59 51.10,-10.44 L51.10,-0.00 L46.14,-0.00 Z M45.80,-5.78 L45.80,-7.65 L42.16,-7.65 Q40.29,-7.65 39.59,-7.04 Q38.90,-6.43 38.90,-5.51 Q38.90,-4.49 39.69,-3.89 Q40.49,-3.30 41.89,-3.30 Q43.21,-3.30 44.26,-3.93 Q45.32,-4.56 45.80,-5.78 Z M55.90,-0.00 L55.90,-18.29 L61.20,-18.29 L61.20,-0.00 L55.90,-0.00 Z M58.55,-20.84 Q57.09,-20.84 56.17,-21.69 Q55.25,-22.54 55.25,-23.80 Q55.25,-25.02 56.17,-25.89 Q57.09,-26.76 58.55,-26.76 Q60.01,-26.76 60.93,-25.94 Q61.85,-25.13 61.85,-23.90 Q61.85,-22.58 60.94,-21.71 Q60.05,-20.84 58.55,-20.84 Z M77.35,-0.00 L77.35,-2.24 Q75.82,0.27 71.77,0.27 Q68.54,0.27 66.74,-1.31 Q64.94,-2.89 64.94,-5.27 Q64.94,-7.68 66.77,-9.21 Q68.61,-10.74 72.79,-10.74 L77.01,-10.74 L77.01,-10.74 Q77.01,-12.44 75.97,-13.39 Q74.93,-14.35 72.79,-14.35 Q71.33,-14.35 69.92,-13.89 Q68.51,-13.43 67.52,-12.65 L65.62,-16.35 Q67.11,-17.41 69.22,-17.98 Q71.33,-18.56 73.51,-18.56 Q77.69,-18.56 80.00,-16.58 Q82.31,-14.59 82.31,-10.44 L82.31,-0.00 L77.35,-0.00 Z M77.01,-5.78 L77.01,-7.65 L73.37,-7.65 Q71.50,-7.65 70.81,-7.04 Q70.11,-6.43 70.11,-5.51 Q70.11,-4.49 70.91,-3.89 Q71.70,-3.30 73.10,-3.30 Q74.42,-3.30 75.48,-3.93 Q76.53,-4.56 77.01,-5.78 Z" fill="#1a1a1a"/></g><g transform="translate(71.44,47.76)"><path d="M1.00,-0.00 L1.00,-6.65 L3.98,-6.65 Q5.13,-6.65 5.75,-6.19 Q6.37,-5.73 6.37,-4.93 Q6.37,-4.39 6.11,-4.01 Q5.86,-3.64 5.46,-3.45 Q6.03,-3.29 6.37,-2.87 Q6.72,-2.46 6.72,-1.80 Q6.72,-0.94 6.08,-0.47 Q5.43,-0.00 4.17,-0.00 L1.00,-0.00 Z M1.95,-0.77 L4.13,-0.77 Q4.92,-0.77 5.34,-1.03 Q5.76,-1.30 5.76,-1.87 Q5.76,-2.45 5.34,-2.72 Q4.92,-2.98 4.13,-2.98 L1.95,-2.98 L1.95,-0.77 Z M1.95,-3.75 L3.90,-3.75 Q4.62,-3.75 5.02,-4.02 Q5.42,-4.28 5.42,-4.82 Q5.42,-5.35 5.02,-5.61 Q4.62,-5.88 3.90,-5.88 L1.95,-5.88 L1.95,-3.75 Z M11.07,-0.00 L11.07,-2.32 L8.43,-6.65 L9.44,-6.65 L11.57,-3.15 L13.71,-6.65 L14.65,-6.65 L12.01,-2.32 L12.01,-0.00 L11.07,-0.00 Z M21.98,-0.00 L21.98,-6.65 L24.58,-6.65 Q25.87,-6.65 26.61,-6.03 Q27.35,-5.42 27.35,-4.33 Q27.35,-3.25 26.61,-2.63 Q25.87,-2.01 24.58,-2.01 L22.93,-2.01 L22.93,-0.00 L21.98,-0.00 Z M22.93,-2.84 L24.55,-2.84 Q25.46,-2.84 25.93,-3.23 Q26.40,-3.62 26.40,-4.33 Q26.40,-5.04 25.93,-5.43 Q25.46,-5.82 24.55,-5.82 L22.93,-5.82 L22.93,-2.84 Z M30.11,-0.00 L30.11,-6.65 L30.89,-6.65 L33.67,-1.98 L36.40,-6.65 L37.18,-6.65 L37.19,-0.00 L36.28,-0.00 L36.27,-4.85 L33.87,-0.81 L33.43,-0.81 L31.03,-4.82 L31.03,-0.00 L30.11,-0.00 Z M40.46,-0.00 L40.46,-6.65 L41.41,-6.65 L41.41,-0.00 L40.46,-0.00 Z M51.10,-0.00 L51.10,-5.82 L48.82,-5.82 L48.82,-6.65 L54.32,-6.65 L54.32,-5.82 L52.04,-5.82 L52.04,-0.00 L51.10,-0.00 Z M59.63,0.08 Q58.86,0.08 58.22,-0.18 Q57.57,-0.44 57.10,-0.89 Q56.62,-1.35 56.35,-1.97 Q56.09,-2.59 56.09,-3.33 Q56.09,-4.06 56.35,-4.68 Q56.62,-5.30 57.10,-5.76 Q57.57,-6.21 58.22,-6.47 Q58.86,-6.73 59.63,-6.73 Q60.39,-6.73 61.03,-6.47 Q61.67,-6.22 62.15,-5.76 Q62.63,-5.30 62.90,-4.68 Q63.16,-4.06 63.16,-3.33 Q63.16,-2.59 62.90,-1.97 Q62.63,-1.35 62.15,-0.89 Q61.67,-0.43 61.03,-0.18 Q60.39,0.08 59.63,0.08 Z M59.63,-0.77 Q60.36,-0.77 60.95,-1.10 Q61.53,-1.43 61.87,-2.01 Q62.21,-2.59 62.21,-3.33 Q62.21,-4.06 61.87,-4.64 Q61.53,-5.22 60.95,-5.55 Q60.36,-5.88 59.63,-5.88 Q58.88,-5.88 58.30,-5.55 Q57.71,-5.22 57.37,-4.64 Q57.04,-4.06 57.04,-3.33 Q57.04,-2.59 57.37,-2.01 Q57.71,-1.43 58.30,-1.10 Q58.88,-0.77 59.63,-0.77 Z M65.88,-0.00 L65.88,-6.65 L68.48,-6.65 Q69.77,-6.65 70.51,-6.03 Q71.25,-5.42 71.25,-4.33 Q71.25,-3.25 70.51,-2.63 Q69.77,-2.01 68.48,-2.01 L66.83,-2.01 L66.83,-0.00 L65.88,-0.00 Z M66.83,-2.84 L68.45,-2.84 Q69.36,-2.84 69.83,-3.23 Q70.30,-3.62 70.30,-4.33 Q70.30,-5.04 69.83,-5.43 Q69.36,-5.82 68.45,-5.82 L66.83,-5.82 L66.83,-2.84 Z M79.12,-0.00 L79.12,-6.65 L83.81,-6.65 L83.81,-5.82 L80.07,-5.82 L80.07,-3.51 L83.40,-3.51 L83.40,-2.69 L80.07,-2.69 L80.07,-0.00 L79.12,-0.00 Z M86.42,-0.00 L86.42,-6.65 L87.37,-6.65 L87.37,-0.83 L90.97,-0.83 L90.97,-0.00 L86.42,-0.00 Z M96.34,0.08 Q95.57,0.08 94.92,-0.18 Q94.28,-0.44 93.80,-0.89 Q93.33,-1.35 93.06,-1.97 Q92.80,-2.59 92.80,-3.33 Q92.80,-4.06 93.06,-4.68 Q93.33,-5.30 93.80,-5.76 Q94.28,-6.21 94.92,-6.47 Q95.57,-6.73 96.34,-6.73 Q97.10,-6.73 97.74,-6.47 Q98.38,-6.22 98.86,-5.76 Q99.34,-5.30 99.60,-4.68 Q99.86,-4.06 99.86,-3.33 Q99.86,-2.59 99.60,-1.97 Q99.34,-1.35 98.86,-0.89 Q98.38,-0.43 97.74,-0.18 Q97.10,0.08 96.34,0.08 Z M96.34,-0.77 Q97.07,-0.77 97.65,-1.10 Q98.24,-1.43 98.58,-2.01 Q98.91,-2.59 98.91,-3.33 Q98.91,-4.06 98.58,-4.64 Q98.24,-5.22 97.65,-5.55 Q97.07,-5.88 96.34,-5.88 Q95.59,-5.88 95.00,-5.55 Q94.42,-5.22 94.08,-4.64 Q93.75,-4.06 93.75,-3.33 Q93.75,-2.59 94.08,-2.01 Q94.42,-1.43 95.00,-1.10 Q95.59,-0.77 96.34,-0.77 Z M102.59,-0.00 L102.59,-6.65 L105.18,-6.65 Q106.48,-6.65 107.22,-6.03 Q107.96,-5.42 107.96,-4.33 Q107.96,-3.55 107.58,-3.02 Q107.20,-2.48 106.49,-2.23 L108.07,-0.00 L107.04,-0.00 L105.60,-2.04 Q105.40,-2.02 105.18,-2.02 L103.54,-2.02 L103.54,-0.00 L102.59,-0.00 Z M103.54,-2.83 L105.16,-2.83 Q106.07,-2.83 106.54,-3.22 Q107.01,-3.62 107.01,-4.33 Q107.01,-5.04 106.54,-5.43 Q106.07,-5.82 105.16,-5.82 L103.54,-5.82 L103.54,-2.83 Z M110.77,-0.00 L110.77,-6.65 L111.72,-6.65 L111.72,-0.00 L110.77,-0.00 Z M114.99,-0.00 L114.99,-6.65 L117.79,-6.65 Q118.85,-6.65 119.67,-6.23 Q120.48,-5.81 120.93,-5.06 Q121.38,-4.31 121.38,-3.33 Q121.38,-2.34 120.93,-1.59 Q120.48,-0.84 119.67,-0.42 Q118.85,-0.00 117.79,-0.00 L114.99,-0.00 Z M115.94,-0.83 L117.73,-0.83 Q118.56,-0.83 119.16,-1.14 Q119.77,-1.45 120.10,-2.01 Q120.43,-2.57 120.43,-3.33 Q120.43,-4.08 120.10,-4.64 Q119.77,-5.20 119.16,-5.51 Q118.56,-5.82 117.73,-5.82 L115.94,-5.82 L115.94,-0.83 Z M123.10,-0.00 L126.11,-6.65 L127.05,-6.65 L130.07,-0.00 L129.08,-0.00 L128.34,-1.66 L124.81,-1.66 L124.08,-0.00 L123.10,-0.00 Z M125.14,-2.42 L128.01,-2.42 L126.58,-5.68 L125.14,-2.42 Z M137.44,-0.00 L137.44,-6.65 L140.03,-6.65 Q141.32,-6.65 142.06,-6.03 Q142.80,-5.42 142.80,-4.33 Q142.80,-3.25 142.06,-2.63 Q141.32,-2.01 140.03,-2.01 L138.39,-2.01 L138.39,-0.00 L137.44,-0.00 Z M138.39,-2.84 L140.00,-2.84 Q140.91,-2.84 141.38,-3.23 Q141.85,-3.62 141.85,-4.33 Q141.85,-5.04 141.38,-5.43 Q140.91,-5.82 140.00,-5.82 L138.39,-5.82 L138.39,-2.84 Z M145.57,-0.00 L145.57,-6.65 L148.16,-6.65 Q149.45,-6.65 150.20,-6.03 Q150.94,-5.42 150.94,-4.33 Q150.94,-3.55 150.56,-3.02 Q150.18,-2.48 149.47,-2.23 L151.05,-0.00 L150.01,-0.00 L148.58,-2.04 Q148.38,-2.02 148.16,-2.02 L146.52,-2.02 L146.52,-0.00 L145.57,-0.00 Z M146.52,-2.83 L148.13,-2.83 Q149.04,-2.83 149.52,-3.22 Q149.99,-3.62 149.99,-4.33 Q149.99,-5.04 149.52,-5.43 Q149.04,-5.82 148.13,-5.82 L146.52,-5.82 L146.52,-2.83 Z M156.75,0.08 Q155.98,0.08 155.33,-0.18 Q154.69,-0.44 154.21,-0.89 Q153.74,-1.35 153.47,-1.97 Q153.21,-2.59 153.21,-3.33 Q153.21,-4.06 153.47,-4.68 Q153.74,-5.30 154.21,-5.76 Q154.69,-6.21 155.33,-6.47 Q155.98,-6.73 156.75,-6.73 Q157.51,-6.73 158.15,-6.47 Q158.79,-6.22 159.27,-5.76 Q159.75,-5.30 160.01,-4.68 Q160.27,-4.06 160.27,-3.33 Q160.27,-2.59 160.01,-1.97 Q159.75,-1.35 159.27,-0.89 Q158.79,-0.43 158.15,-0.18 Q157.51,0.08 156.75,0.08 Z M156.75,-0.77 Q157.48,-0.77 158.06,-1.10 Q158.65,-1.43 158.99,-2.01 Q159.32,-2.59 159.32,-3.33 Q159.32,-4.06 158.99,-4.64 Q158.65,-5.22 158.06,-5.55 Q157.48,-5.88 156.75,-5.88 Q156.00,-5.88 155.41,-5.55 Q154.83,-5.22 154.49,-4.64 Q154.16,-4.06 154.16,-3.33 Q154.16,-2.59 154.49,-2.01 Q154.83,-1.43 155.41,-1.10 Q156.00,-0.77 156.75,-0.77 Z M163.00,-0.00 L163.00,-6.65 L165.59,-6.65 Q166.89,-6.65 167.63,-6.03 Q168.37,-5.42 168.37,-4.33 Q168.37,-3.25 167.63,-2.63 Q166.89,-2.01 165.59,-2.01 L163.95,-2.01 L163.95,-0.00 L163.00,-0.00 Z M163.95,-2.84 L165.57,-2.84 Q166.48,-2.84 166.95,-3.23 Q167.42,-3.62 167.42,-4.33 Q167.42,-5.04 166.95,-5.43 Q166.48,-5.82 165.57,-5.82 L163.95,-5.82 L163.95,-2.84 Z M171.13,-0.00 L171.13,-6.65 L175.83,-6.65 L175.83,-5.82 L172.08,-5.82 L172.08,-3.78 L175.42,-3.78 L175.42,-2.97 L172.08,-2.97 L172.08,-0.83 L175.96,-0.83 L175.96,-0.00 L171.13,-0.00 Z M178.77,-0.00 L178.77,-6.65 L181.36,-6.65 Q182.66,-6.65 183.40,-6.03 Q184.14,-5.42 184.14,-4.33 Q184.14,-3.55 183.76,-3.02 Q183.38,-2.48 182.67,-2.23 L184.25,-0.00 L183.22,-0.00 L181.78,-2.04 Q181.58,-2.02 181.36,-2.02 L179.72,-2.02 L179.72,-0.00 L178.77,-0.00 Z M179.72,-2.83 L181.34,-2.83 Q182.25,-2.83 182.72,-3.22 Q183.19,-3.62 183.19,-4.33 Q183.19,-5.04 182.72,-5.43 Q182.25,-5.82 181.34,-5.82 L179.72,-5.82 L179.72,-2.83 Z M188.27,-0.00 L188.27,-5.82 L185.99,-5.82 L185.99,-6.65 L191.49,-6.65 L191.49,-5.82 L189.21,-5.82 L189.21,-0.00 L188.27,-0.00 Z M193.80,-0.00 L193.80,-6.65 L194.75,-6.65 L194.75,-0.00 L193.80,-0.00 Z M198.02,-0.00 L198.02,-6.65 L202.71,-6.65 L202.71,-5.82 L198.97,-5.82 L198.97,-3.78 L202.30,-3.78 L202.30,-2.97 L198.97,-2.97 L198.97,-0.83 L202.84,-0.83 L202.84,-0.00 L198.02,-0.00 Z M207.59,0.08 Q206.83,0.08 206.14,-0.16 Q205.45,-0.39 205.05,-0.76 L205.40,-1.50 Q205.77,-1.17 206.36,-0.95 Q206.96,-0.73 207.59,-0.73 Q208.45,-0.73 208.84,-1.03 Q209.24,-1.32 209.24,-1.76 Q209.24,-2.10 209.02,-2.31 Q208.80,-2.52 208.44,-2.65 Q208.08,-2.77 207.65,-2.87 Q207.22,-2.96 206.79,-3.09 Q206.36,-3.21 206.00,-3.41 Q205.65,-3.62 205.43,-3.96 Q205.21,-4.29 205.21,-4.83 Q205.21,-5.34 205.48,-5.77 Q205.75,-6.20 206.32,-6.46 Q206.88,-6.73 207.75,-6.73 Q208.34,-6.73 208.91,-6.57 Q209.48,-6.42 209.89,-6.14 L209.58,-5.38 Q209.15,-5.65 208.67,-5.78 Q208.19,-5.92 207.75,-5.92 Q206.91,-5.92 206.52,-5.61 Q206.14,-5.30 206.14,-4.86 Q206.14,-4.51 206.36,-4.30 Q206.58,-4.09 206.94,-3.97 Q207.30,-3.85 207.73,-3.75 Q208.15,-3.65 208.59,-3.52 Q209.02,-3.40 209.38,-3.20 Q209.73,-3.00 209.95,-2.67 Q210.17,-2.34 210.17,-1.81 Q210.17,-1.31 209.89,-0.88 Q209.62,-0.45 209.04,-0.19 Q208.47,0.08 207.59,0.08 Z" fill="#8a8a8a"/></g></svg>